<svg xmlns="http://www.w3.org/2000/svg" width="32" height="32" viewBox="0 0 32 32">
	<title>potato</title>
	<defs>
		<linearGradient id="potatoGrad" x1="0%" y1="0%" x2="100%" y2="100%">
			<stop offset="0%" style="stop-color:#D4A574"/>
			<stop offset="50%" style="stop-color:#C49A6C"/>
			<stop offset="100%" style="stop-color:#B8956A"/>
		</linearGradient>
	</defs>
	<path d="M16 4c-6 0-10 3-12 7-1.5 3-1.5 6.5 0 9.5C6 24 10 28 16 28s10-4 12-7.5c1.5-3 1.5-6.5 0-9.5C26 7 22 4 16 4z" fill="url(#potatoGrad)" stroke="#8B6914" stroke-width="1.5"/>
	<ellipse cx="11" cy="12" rx="1.5" ry="2" fill="#A67C52" opacity="0.6"/>
	<ellipse cx="20" cy="10" rx="1" ry="1.5" fill="#A67C52" opacity="0.5"/>
	<ellipse cx="17" cy="18" rx="1.2" ry="1.8" fill="#A67C52" opacity="0.4"/>
	<circle cx="8" cy="16" r="1" fill="#A67C52" opacity="0.5"/>
	<ellipse cx="23" cy="17" rx="0.8" ry="1.2" fill="#A67C52" opacity="0.5"/>
</svg>
